<svg  viewBox="0 0 332 252" xmlns="http://www.w3.org/2000/svg">
<path d="M82.1037 0.44068C81.663 0.566589 81.2852 1.13318 81.2852 1.63682C81.2852 2.14045 81.0333 2.51818 80.6556 2.51818C80.3407 2.51818 80.0259 2.95886 80.0259 3.4625C80.0259 3.96613 79.7741 4.40682 79.3963 4.40682C79.0815 4.40682 78.7667 4.8475 78.7667 5.35113C78.7667 5.85477 78.5148 6.29545 78.137 6.29545C77.8222 6.29545 77.5074 6.67318 77.5074 7.11386C77.5074 7.55454 76.9407 8.56182 76.2481 9.31727C75.5556 10.0727 74.9889 10.8282 74.9889 11.017C74.9889 11.143 71.7148 16.3052 67.7481 22.3489C63.7815 28.4555 60.5074 33.6807 60.5074 33.9955C60.5074 34.3732 60.2556 34.625 59.8778 34.625C59.563 34.625 59.2481 34.9398 59.2481 35.2545C59.2481 35.6323 58.6815 36.5136 57.9889 37.2691C57.2963 38.0245 56.7296 39.0318 56.7296 39.4725C56.7296 39.9132 56.4778 40.2909 56.1 40.2909C55.7852 40.2909 55.4704 40.7316 55.4704 41.2352C55.4704 41.7389 55.2185 42.1795 54.8407 42.1795C54.5259 42.1795 54.2111 42.6202 54.2111 43.1239C54.2111 43.6275 53.9593 44.0682 53.7074 44.0682C53.3926 44.0682 52.763 44.8236 52.2593 45.768C51.7556 46.7752 51.2518 47.6566 51.063 47.8455C50.4333 48.475 47.9148 52.1893 47.9148 52.5041C47.9148 52.8189 44.0111 58.7995 41.5556 62.388C41.1148 63.0175 40.9259 63.5841 41.0518 63.647C41.2407 63.8989 39.7296 65.8505 38.0296 67.6761C37.5889 68.1798 37.2111 68.8093 37.2111 69.187C37.2111 69.5648 36.9593 69.8795 36.5815 69.8795C36.2667 69.8795 35.9518 70.2573 35.9518 70.698C35.9518 71.1386 35.3852 72.1459 34.6926 72.9014C34 73.6568 33.4333 74.5382 33.4333 74.9159C33.4333 75.2307 33.1815 75.5455 32.8037 75.5455C32.4889 75.5455 32.1741 75.9861 32.1741 76.4898C32.1741 76.9934 31.9222 77.4341 31.5444 77.4341C31.2296 77.4341 30.9148 77.8748 30.9148 78.3784C30.9148 78.882 30.663 79.3227 30.2852 79.3227C29.9704 79.3227 29.6556 79.7634 29.6556 80.267C29.6556 80.7707 29.4037 81.2114 29.0259 81.2114C28.7111 81.2114 28.3963 81.778 28.3963 82.4075C28.3963 83.1 28.1444 83.7295 27.8296 83.8555C27.3259 84.0443 12.6556 106.204 12.6556 106.771C12.6556 106.96 12.1518 107.652 11.5222 108.345C10.8296 108.974 9.94814 110.359 9.44444 111.304C8.94074 112.248 8.05925 113.57 7.42962 114.2C6.86296 114.892 6.35925 115.836 6.35925 116.277C6.35925 116.718 6.1074 117.095 5.72962 117.095C5.41481 117.095 5.09999 117.536 5.09999 118.04C5.09999 118.543 4.84814 118.984 4.47037 118.984C4.15555 118.984 3.84074 119.425 3.84074 119.928C3.84074 120.432 3.58888 120.873 3.21111 120.873C2.89629 120.873 2.58148 121.313 2.58148 121.817C2.58148 122.321 2.32962 122.761 2.07777 122.761C1.76296 122.761 1.19629 123.454 0.818513 124.335L0.0629578 125.909H40.8H81.4741L82.6704 124.461C83.363 123.706 84.6852 121.817 85.5667 120.243C86.4481 118.669 87.4556 117.284 87.7074 117.221C87.9593 117.095 88.2111 116.718 88.2111 116.34C88.2111 115.962 89.1556 114.388 90.2889 112.752C91.3593 111.178 92.6815 109.1 93.1852 108.093C93.6889 107.149 94.3185 106.393 94.6333 106.393C94.8852 106.393 95.137 106.015 95.137 105.575C95.137 105.134 95.7037 104.127 96.3963 103.371C97.0889 102.616 97.6556 101.735 97.6556 101.357C97.6556 101.042 97.9704 100.727 98.2852 100.727C98.663 100.727 98.9148 100.287 98.9148 99.783C98.9148 99.2793 99.2296 98.8386 99.5444 98.8386C99.9222 98.8386 100.174 98.4609 100.174 98.0202C100.174 97.5795 100.741 96.5723 101.433 95.8168C102.126 95.0614 102.693 94.18 102.693 93.8023C102.693 93.4875 103.007 93.1727 103.322 93.1727C103.7 93.1727 103.952 92.732 103.952 92.2284C103.952 91.7248 104.267 91.2841 104.581 91.2841C104.959 91.2841 105.211 90.9693 105.211 90.6545C105.211 90.2768 106.659 87.8845 108.359 85.3034C110.059 82.7223 111.507 80.393 111.507 80.0152C111.507 79.7005 111.759 79.3227 112.011 79.1968C112.641 78.945 120.952 66.2282 120.952 65.4727C120.952 65.2209 121.204 64.8432 121.456 64.7173C122.211 64.4655 127.248 56.848 127.248 56.0925C127.248 55.7148 127.563 55.4 127.878 55.4C128.256 55.4 128.507 55.0852 128.507 54.7705C128.507 54.3927 129.074 53.5114 129.767 52.7559C130.459 52.0005 131.404 50.6155 131.781 49.6082C132.222 48.6639 132.789 47.8455 133.041 47.8455C133.356 47.8455 133.544 47.5307 133.544 47.2159C133.544 46.8382 133.859 46.2086 134.174 45.768C135.181 44.6348 141.289 35.1916 142.296 33.177C142.8 32.2327 143.43 31.4773 143.619 31.4773C143.87 31.4773 144.437 30.5959 144.878 29.5886C145.319 28.5184 145.885 27.7 146.2 27.7C146.515 27.7 146.767 27.2593 146.767 26.7557C146.767 26.252 147.081 25.8114 147.396 25.8114C147.774 25.8114 148.026 25.3707 148.026 24.867C148.026 24.3634 148.341 23.9227 148.656 23.9227C149.033 23.9227 149.285 23.482 149.285 22.9784C149.285 22.4748 149.6 22.0341 149.915 22.0341C150.293 22.0341 150.544 21.5934 150.544 21.0898C150.544 20.5861 150.859 20.1455 151.174 20.1455C151.552 20.1455 151.804 19.7048 151.804 19.2011C151.804 18.6975 152.119 18.2568 152.433 18.2568C152.811 18.2568 153.063 17.8161 153.063 17.3125C153.063 16.8089 153.378 16.3682 153.693 16.3682C154.07 16.3682 154.322 15.9275 154.322 15.4239C154.322 14.9202 154.637 14.4795 154.952 14.4795C155.33 14.4795 155.581 14.1648 155.581 13.85C155.581 13.4723 157.596 10.1986 159.989 6.61023L164.396 -1.90735e-06L123.659 0.0629526C101.181 0.0629526 82.4815 0.251816 82.1037 0.44068Z" />
<path d="M170.063 4.72159C171.763 7.30273 173.211 9.56909 173.211 9.75795C173.211 9.94682 173.778 10.7023 174.47 11.4577C175.163 12.2132 175.73 13.2205 175.73 13.6611C175.73 14.1018 176.044 14.4795 176.359 14.4795C176.737 14.4795 176.989 14.9202 176.989 15.4239C176.989 15.9275 177.304 16.3682 177.619 16.3682C177.996 16.3682 178.248 16.8089 178.248 17.3125C178.248 17.8161 178.563 18.2568 178.878 18.2568C179.256 18.2568 179.507 18.6975 179.507 19.2011C179.507 19.7048 179.822 20.1455 180.137 20.1455C180.515 20.1455 180.767 20.5861 180.767 21.0898C180.767 21.5934 181.081 22.0341 181.396 22.0341C181.774 22.0341 182.026 22.4748 182.026 22.9784C182.026 23.482 182.341 23.9227 182.656 23.9227C183.033 23.9227 183.285 24.3634 183.285 24.867C183.285 25.3707 183.6 25.8114 183.915 25.8114C184.293 25.8114 184.544 26.252 184.544 26.7557C184.544 27.2593 184.796 27.7 185.048 27.7C185.363 27.7 185.993 28.4555 186.496 29.3998C187 30.407 187.881 31.7291 188.511 32.3586C189.078 33.0511 189.581 33.8066 189.581 34.0584C189.581 34.4991 195.941 44.4459 197.137 45.768C197.452 46.2086 197.767 46.8382 197.767 47.2159C197.767 47.5307 197.956 47.8455 198.27 47.8455C198.522 47.8455 199.089 48.6639 199.53 49.6082C199.907 50.6155 200.852 52.0005 201.544 52.7559C202.237 53.5114 202.804 54.3927 202.804 54.7705C202.804 55.0852 202.993 55.4 203.307 55.4C203.559 55.4 204.126 56.2184 204.567 57.1627C204.944 58.17 205.826 59.492 206.456 60.1845C207.022 60.8141 207.904 62.1361 208.407 63.0805C208.911 64.0877 209.541 64.8432 209.856 64.8432C210.107 64.8432 210.359 65.158 210.359 65.5357C210.359 65.9134 213.885 71.5793 218.23 78.1266C222.574 84.7368 226.1 90.3398 226.1 90.7175C226.1 91.0323 226.415 91.2841 226.73 91.2841C227.107 91.2841 227.359 91.7248 227.359 92.2284C227.359 92.732 227.674 93.1727 227.989 93.1727C228.367 93.1727 228.619 93.6134 228.619 94.117C228.619 94.6207 228.933 95.0614 229.248 95.0614C229.626 95.0614 229.878 95.502 229.878 96.0057C229.878 96.5093 230.193 96.95 230.507 96.95C230.885 96.95 231.137 97.3907 231.137 97.8943C231.137 98.398 231.389 98.8386 231.641 98.8386C231.956 98.8386 232.585 99.5941 233.089 100.538C233.593 101.546 234.474 102.868 235.104 103.497C235.67 104.19 236.174 105.071 236.174 105.512C236.174 105.952 236.426 106.393 236.678 106.519C237.433 106.834 243.1 115.585 243.1 116.403C243.1 116.781 243.352 117.095 243.604 117.095C243.919 117.095 244.8 118.292 245.556 119.802C246.311 121.313 247.633 123.328 248.389 124.209L249.837 125.909H290.511H331.122L330.43 124.335C329.989 123.454 329.485 122.761 329.233 122.761C328.918 122.761 328.73 122.321 328.73 121.817C328.73 121.313 328.478 120.873 328.1 120.873C327.785 120.873 327.47 120.432 327.47 119.928C327.47 119.425 327.218 118.984 326.841 118.984C326.526 118.984 326.211 118.543 326.211 118.04C326.211 117.536 325.959 117.095 325.581 117.095C325.267 117.095 324.952 116.718 324.952 116.277C324.952 115.836 324.385 114.829 323.693 114.074C323 113.318 322.433 112.437 322.433 112.059C322.433 111.744 322.181 111.43 321.804 111.43C321.489 111.43 321.174 111.052 321.174 110.611C321.174 110.17 320.607 109.163 319.915 108.408C319.222 107.652 318.656 106.96 318.656 106.771C318.656 106.141 303.985 84.0443 303.481 83.8555C303.167 83.7295 302.915 83.1 302.915 82.4075C302.915 81.778 302.663 81.2114 302.285 81.2114C301.97 81.2114 301.656 80.7707 301.656 80.267C301.656 79.7634 301.404 79.3227 301.026 79.3227C300.711 79.3227 300.396 78.882 300.396 78.3784C300.396 77.8748 300.144 77.4341 299.767 77.4341C299.452 77.4341 299.137 76.9934 299.137 76.4898C299.137 75.9861 298.885 75.5455 298.507 75.5455C298.193 75.5455 297.878 75.2307 297.878 74.9159C297.878 74.5382 297.311 73.6568 296.619 72.9014C295.926 72.1459 295.359 71.1386 295.359 70.698C295.359 70.2573 295.107 69.8795 294.793 69.8795C294.478 69.8795 294.1 69.3759 293.848 68.7464C293.659 68.1798 292.778 66.6689 291.896 65.4727C291.015 64.2766 290.007 62.8286 289.693 62.325C289.315 61.8214 287.804 59.492 286.23 57.0998C284.656 54.7705 283.396 52.567 283.396 52.2523C283.396 51.8745 283.144 51.6227 282.83 51.6227C282.515 51.6227 281.948 50.7414 281.507 49.7341C281.067 48.6639 280.5 47.8455 280.185 47.8455C279.87 47.8455 279.619 47.4677 279.619 47.027C279.619 46.5864 279.052 45.5791 278.359 44.8236C277.667 44.0682 277.1 43.1868 277.1 42.8091C277.1 42.4943 276.848 42.1795 276.47 42.1795C276.156 42.1795 275.841 41.7389 275.841 41.2352C275.841 40.7316 275.589 40.2909 275.211 40.2909C274.896 40.2909 274.581 39.9132 274.581 39.4725C274.581 39.0318 274.015 38.0245 273.322 37.2691C272.63 36.5136 272.063 35.8211 272.063 35.6323C272.063 35.0027 261.863 19.8307 261.296 19.6418C260.981 19.5159 260.73 19.0752 260.73 18.6975C260.73 18.2568 259.722 16.4311 258.526 14.6684C257.33 12.8427 256.322 11.08 256.322 10.7023C256.322 10.3875 256.07 10.0727 255.819 10.0727C255.504 10.0727 254.874 9.31727 254.37 8.31C253.867 7.36568 252.985 6.04363 252.419 5.41409C251.789 4.72159 251.285 3.77727 251.285 3.33659C251.285 2.89591 251.033 2.51818 250.719 2.51818C250.404 2.51818 250.026 1.95159 249.837 1.25909C249.522 -1.90735e-06 248.956 -1.90735e-06 208.219 -1.90735e-06H166.852L170.063 4.72159Z" />
<path d="M81.9148 127.042C81.537 127.168 81.2852 127.672 81.2852 128.175C81.2852 128.679 81.0333 129.057 80.6555 129.057C80.3407 129.057 80.0259 129.498 80.0259 130.001C80.0259 130.505 79.7741 130.945 79.3963 130.945C79.0815 130.945 78.7667 131.386 78.7667 131.89C78.7667 132.393 78.5148 132.834 78.137 132.834C77.8222 132.834 77.5074 133.275 77.5074 133.778C77.5074 134.282 77.2555 134.723 76.8778 134.723C76.563 134.723 76.2481 134.975 76.2481 135.352C76.2481 135.667 74.3593 138.815 72.0296 142.34C69.637 145.866 67.4963 149.202 67.1185 149.706C66.8037 150.273 62.3333 157.009 57.2333 164.752C52.0704 172.495 47.9148 179.043 47.9148 179.358C47.9148 179.672 47.663 180.05 47.4111 180.176C47.1593 180.239 45.5852 182.505 43.9481 185.086C42.3741 187.668 40.737 190.123 40.3593 190.563C40.0444 191.004 39.7296 191.634 39.7296 192.011C39.7296 192.326 39.4778 192.641 39.1 192.641C38.7852 192.641 38.4704 193.082 38.4704 193.585C38.4704 194.089 38.2185 194.53 37.8407 194.53C37.5259 194.53 37.2111 194.97 37.2111 195.474C37.2111 195.978 36.9593 196.418 36.5815 196.418C36.2667 196.418 35.9518 196.859 35.9518 197.363C35.9518 197.866 35.7 198.307 35.3222 198.307C35.0074 198.307 34.6926 198.685 34.6926 199.125C34.6926 199.566 34.1259 200.573 33.4333 201.329C32.7407 202.084 32.1741 202.965 32.1741 203.343C32.1741 203.658 31.9222 203.973 31.5444 203.973C31.2296 203.973 30.9148 204.413 30.9148 204.917C30.9148 205.421 30.663 205.861 30.2852 205.861C29.9704 205.861 29.6556 206.302 29.6556 206.806C29.6556 207.309 29.4037 207.75 29.0259 207.75C28.7111 207.75 28.3963 208.191 28.3963 208.694C28.3963 209.198 28.1444 209.639 27.7667 209.639C27.4518 209.639 27.137 209.89 27.137 210.268C27.137 210.583 23.863 215.808 19.8963 221.852C15.9296 227.958 12.6556 233.184 12.6556 233.561C12.6556 233.876 12.4037 234.191 12.0259 234.191C11.7111 234.191 11.3963 234.506 11.3963 234.82C11.3963 235.198 10.8296 236.08 10.137 236.835C9.44444 237.59 8.87778 238.598 8.87778 239.038C8.87778 239.479 8.62593 239.857 8.24815 239.857C7.93333 239.857 7.61852 240.297 7.61852 240.801C7.61852 241.305 7.36667 241.745 7.11481 241.745C6.8 241.745 6.17037 242.501 5.66667 243.445C5.16296 244.452 4.28148 245.775 3.65185 246.404C3.08518 247.097 2.58148 247.915 2.58148 248.167C2.58148 248.482 2.01481 249.363 1.25926 250.118L0 251.503L40.8 251.692L81.6 251.818L83.3 249.867C84.2444 248.796 85.1889 247.411 85.3778 246.719C85.6296 246.089 86.0704 245.523 86.3852 245.523C86.7 245.523 86.9518 245.271 86.9518 244.893C86.9518 244.075 97.6555 227.644 98.3481 227.392C98.663 227.266 98.9148 226.825 98.9148 226.385C98.9148 225.944 99.4185 225.062 100.048 224.37C100.615 223.74 101.496 222.418 102 221.474C102.504 220.53 103.385 219.145 104.078 218.515C104.707 217.823 105.211 216.941 105.211 216.564C105.211 216.249 105.526 215.934 105.841 215.934C106.219 215.934 106.47 215.682 106.47 215.367C106.47 214.99 108.863 211.024 111.822 206.554C114.781 202.021 117.174 198.055 117.174 197.74C117.174 197.425 117.426 197.048 117.678 196.922C118.433 196.67 124.73 187.164 124.73 186.345C124.73 186.031 125.044 185.716 125.359 185.716C125.737 185.716 125.989 185.275 125.989 184.772C125.989 184.268 126.304 183.827 126.619 183.827C126.996 183.827 127.248 183.387 127.248 182.883C127.248 182.379 127.563 181.939 127.878 181.939C128.256 181.939 128.507 181.498 128.507 180.994C128.507 180.491 128.822 180.05 129.137 180.05C129.515 180.05 129.767 179.735 129.767 179.42C129.767 179.043 130.333 178.161 131.026 177.406C131.656 176.713 132.663 175.203 133.167 174.069C133.733 172.936 134.552 171.677 135.119 171.236C135.622 170.796 136.063 170.229 136.063 169.914C136.063 169.663 136.756 168.34 137.637 167.018C138.519 165.696 139.589 164.123 140.03 163.43C140.407 162.8 141.289 161.604 141.919 160.849C142.485 160.03 142.989 158.897 142.989 158.331C142.989 157.764 143.304 157.512 143.619 157.701C143.996 157.89 144.248 157.638 144.248 157.135C144.248 156.568 144.563 156.127 144.878 156.127C145.256 156.127 145.507 155.75 145.507 155.309C145.507 154.868 146.011 153.924 146.641 153.231C147.207 152.602 148.089 151.28 148.593 150.273C149.096 149.328 149.726 148.573 150.041 148.573C150.293 148.573 150.544 148.195 150.544 147.754C150.544 147.314 151.111 146.306 151.804 145.551C152.496 144.795 153.063 143.914 153.063 143.536C153.063 143.222 153.378 142.907 153.693 142.907C154.07 142.907 154.322 142.592 154.322 142.277C154.322 141.9 156.463 138.437 159.044 134.534C161.626 130.694 163.578 127.42 163.263 127.294C162.57 127.105 82.6074 126.79 81.9148 127.042Z"/>
<path d="M167.796 127.609C167.985 128.05 170.126 131.386 172.581 134.975C174.974 138.626 176.989 141.9 176.989 142.277C176.989 142.592 177.304 142.907 177.619 142.907C177.996 142.907 178.248 143.222 178.248 143.536C178.248 143.914 178.815 144.795 179.507 145.551C180.2 146.306 180.767 147.314 180.767 147.754C180.767 148.195 181.081 148.573 181.396 148.573C181.774 148.573 182.026 149.013 182.026 149.517C182.026 150.021 182.341 150.461 182.656 150.461C183.033 150.461 183.285 150.776 183.285 151.091C183.285 151.469 183.852 152.35 184.544 153.105C185.237 153.861 185.804 154.868 185.804 155.309C185.804 155.75 186.119 156.127 186.433 156.127C186.811 156.127 187.063 156.442 187.063 156.82C187.063 157.386 190.463 162.675 191.47 163.682C192.289 164.5 195.248 169.411 195.248 169.977C195.248 170.292 195.5 170.607 195.752 170.607C196.067 170.607 196.948 171.866 197.767 173.44C198.522 174.951 199.656 176.713 200.222 177.343C200.789 177.972 201.607 179.232 202.111 180.176C202.615 181.183 203.244 181.939 203.559 181.939C203.811 181.939 204.063 182.379 204.063 182.883C204.063 183.387 204.378 183.827 204.693 183.827C205.07 183.827 205.322 184.268 205.322 184.772C205.322 185.275 205.637 185.716 205.952 185.716C206.33 185.716 206.581 186.031 206.581 186.345C206.581 187.164 212.878 196.67 213.633 196.922C213.885 197.048 214.137 197.425 214.137 197.74C214.137 198.118 214.641 199.125 215.333 200.07C218.67 204.854 224.841 214.801 224.841 215.305C224.841 215.682 225.156 215.934 225.47 215.934C225.848 215.934 226.1 216.249 226.1 216.564C226.1 216.941 226.604 217.823 227.233 218.515C227.926 219.145 228.807 220.53 229.311 221.474C229.815 222.418 230.696 223.74 231.326 224.37C231.893 225.062 232.396 225.944 232.396 226.385C232.396 226.825 232.648 227.266 232.963 227.392C233.656 227.644 244.359 244.075 244.359 244.893C244.359 245.271 244.611 245.523 244.926 245.523C245.241 245.523 245.681 246.026 245.933 246.719C246.122 247.348 246.815 248.545 247.507 249.3C248.137 250.055 248.767 250.937 248.893 251.252C249.019 251.566 265.767 251.755 290.196 251.692C331.248 251.503 331.311 251.503 330.178 250.244C329.548 249.552 328.667 248.23 328.163 247.222C327.659 246.278 327.03 245.523 326.715 245.523C326.463 245.523 326.211 245.082 326.211 244.578C326.211 244.075 325.959 243.634 325.581 243.634C325.267 243.634 324.952 243.193 324.952 242.69C324.952 242.186 324.7 241.745 324.322 241.745C324.007 241.745 323.693 241.305 323.693 240.801C323.693 240.297 323.441 239.857 323.063 239.857C322.748 239.857 322.433 239.479 322.433 239.038C322.433 238.598 321.867 237.59 321.174 236.835C320.481 236.08 319.915 235.387 319.915 235.198C319.915 235.009 316.389 229.469 312.044 222.859C307.7 216.249 304.174 210.583 304.174 210.268C304.174 209.89 303.922 209.639 303.544 209.639C303.23 209.639 302.915 209.198 302.915 208.694C302.915 208.191 302.663 207.75 302.285 207.75C301.97 207.75 301.656 207.309 301.656 206.806C301.656 206.302 301.404 205.861 301.152 205.861C300.837 205.861 300.207 205.106 299.704 204.099C299.2 203.154 298.319 201.832 297.689 201.203C297.122 200.51 296.619 199.566 296.619 199.125C296.619 198.685 296.367 198.307 295.989 198.307C295.674 198.307 295.359 197.866 295.359 197.362C295.359 196.859 295.107 196.418 294.73 196.418C294.415 196.418 294.1 195.977 294.1 195.474C294.1 194.97 293.848 194.53 293.47 194.53C293.156 194.53 292.841 194.089 292.841 193.585C292.841 193.082 292.589 192.641 292.274 192.641C291.959 192.641 291.581 192.137 291.393 191.508C290.952 190.312 278.611 171.299 276.974 169.348C276.344 168.655 275.841 167.963 275.841 167.774C275.841 167.648 271.181 160.408 265.452 151.783C259.722 143.096 255.063 135.667 255.063 135.352C255.063 134.975 254.811 134.723 254.433 134.723C254.119 134.723 253.804 134.282 253.804 133.778C253.804 133.275 253.552 132.834 253.174 132.834C252.859 132.834 252.544 132.393 252.544 131.89C252.544 131.386 252.293 130.945 251.915 130.945C251.6 130.945 251.285 130.505 251.285 130.001C251.285 129.498 251.033 129.057 250.656 129.057C250.341 129.057 250.026 128.616 250.026 128.113C250.026 127.609 249.648 127.168 249.27 127.168C248.83 127.168 230.256 127.105 207.967 126.979C176.359 126.916 167.607 127.042 167.796 127.609Z"/>
</svg>
