<svg version="1" xmlns="http://www.w3.org/2000/svg" width="484" height="484" viewBox="0 0 363.000000 363.000000"><path d="M335 97.6c-7.3 3.5-21.4 8-27 8.8-2.5.3-5.6.8-7 1.1-3.1.6-14.8 1.4-31 2-15.7.6-17.2.8-24.5 2.9-15.8 4.6-29.9 15.9-36 28.9-4.4 9.2-5.5 14.9-5.1 26.7.6 17 7.3 29.1 21.1 37.8 2.2 1.5 4.2 2.7 4.4 2.8.2.2-2.2 2.8-5.3 5.8-18.6 18.1-13 42.8 11.4 50.4 6.6 2.1 10.5 2.4 33.5 2.7 23.4.3 28.4.9 35.7 4.6 10.2 5.2 14 16.3 9.2 26.5-5.2 11-19.7 15.4-48.9 14.9-14.1-.2-18.1-.6-23.6-2.4-10.4-3.3-15.9-10.2-15.9-20v-3.2l-13.2.3c-11 .3-13.3.6-13.3 1.8-.1 4.4 2.6 17.2 4.4 21.4 7.7 16.8 28.4 25 63.1 24.9 7.5 0 24.1-1 27-1.7.8-.1 3.3-.6 5.5-1 5.4-1 18.2-5.5 22.5-7.8 16.7-9.3 24.3-22.4 23.6-41-.5-14.3-11.2-28.1-27.2-35.1-11.3-4.9-17.9-5.9-43.9-6.1-20.8-.3-24.5-.5-27.7-2.1-8-3.9-8.9-13.9-2-22.4 1.9-2.3 2.1-2.4 8.1-1.2 6.8 1.3 23.1 1.7 30.1.7 7.2-1.1 14.9-3.5 21.4-6.8 6.9-3.5 17-13.2 20.7-19.8 7.3-13.2 8.4-32.5 2.7-44.8-2.9-6.1-10.9-14.6-17.4-18.3-3-1.7-5.4-3.3-5.2-3.4.2-.2 5.5-.5 11.8-.6 11.3-.2 30.6-3 32-4.6.8-.8-6.9-25.3-7.9-25.3-.3.1-3.1 1.2-6.1 2.6zM283.5 132c9.3 4.3 14.8 10.9 17.5 20.9 1.2 4.5 1.5 15.4.5 20.1-1.4 7.2-1.9 8.8-4.2 12.8-5.4 9.2-15 14.2-27.4 14.3-22 .1-35.1-11.5-36.3-32.2-1-18.8 7.7-32.5 23.4-36.7 5-1.4 22.9-.8 26.5.8zM128.2 110.2c-11.9 1.8-21.4 6.8-29.9 15.7-4.6 4.8-14.3 19.6-14.3 21.8 0 .7-.4 1.3-.9 1.3s-1.2-2.6-1.6-5.7c-.4-3.2-.9-6.6-1.1-7.7-.2-1.1-.8-5.6-1.4-10-.6-4.5-1.3-9.1-1.5-10.4L77 113H31v21.6l10.8-.1c5.9-.1 11.3 0 12 .3.9.3 1.2 12.9 1.2 58.1v57.8l-12-.1-12-.1V272h42.5c23.4 0 42.5-.3 42.6-.8.6-5.3.2-20.2-.6-20.5-.5-.1-7.9-.2-16.2-.2l-15.3.1v-64.9l4-9.9c6.5-16.3 15.5-28.4 25.6-34.3 4.7-2.8 17.7-6.5 20.3-5.8 1.4.3 1.6 2.6 1.5 16.9l-.1 16.4H158l.1-3.3c.1-1.7.2-4.3.3-5.7.2-1.4.6-7 1.1-12.5.4-5.5.9-11.4 1-13 1.4-16.5 1.8-20.1 2.2-20.8.2-.4.2-.7-.1-.7-.2 0-3.2-.7-6.5-1.5-7.1-1.9-20.5-2.5-27.9-1.3z"/></svg>