<svg version="1" xmlns="http://www.w3.org/2000/svg" width="442.667" height="442.667" viewBox="0 0 332.000000 332.000000"><path d="M74.9 51.4c-6.7 10.4-15.5 23.8-36.1 55.1-4.7 7.1-12.6 19.3-17.6 27-5.1 7.7-9.6 14.7-10.2 15.5-1.1 1.6-9.6 14.5-10.5 16.1-.4.5 14.8.9 40.4.9h40.9l5.6-8.8c3-4.8 5.9-9.2 6.3-9.7.5-.6 4.5-6.5 8.8-13.3 4.4-6.7 14.4-21.9 22.3-33.8 7.8-11.9 14.2-21.8 14.2-22 0-.8 4.4-6.9 5.3-7.2.4-.2.7-.8.7-1.4 0-.5.8-2 1.8-3.3 2.3-3.1 5.2-7.3 9.4-14 .7-1.1 2.5-3.8 3.9-6s2.9-4.6 3.3-5.3c.6-1-7.1-1.2-40.3-1.1l-41.1.2-7.1 11.1zM170.7 45.7c7.8 12.4 17.7 26.8 18.5 27.1.4.2.8.8.8 1.4 0 .5 5.5 9.3 12.3 19.6 6.7 10.3 14.3 21.8 16.7 25.7 9.5 14.6 27 41.1 29 43.8l2.2 2.7h40.4c22.2-.1 40.4-.3 40.4-.6 0-.5-2.9-5.2-4.3-6.9-2.3-2.9-23.7-35.8-23.7-36.5 0-.5-.6-1.5-1.3-2.2-1.3-1.2-10.6-15.2-33.5-50.3-4.6-7.2-10.9-16.7-13.9-21.2l-5.4-8.2L208 40h-41l3.7 5.7zM81 167.8c0 .7-19.6 31.2-21.7 33.7C57.3 204 40 231.2 40 232c0 .5-.3 1-.7 1.2-.7.3-15 21.3-17.8 26-4.7 8.1-11.1 17.8-11.7 17.8-.5 0-.8.5-.8 1.1 0 .6-1.3 2.8-2.8 4.8-1.5 2-3.5 4.7-4.4 6.1l-1.5 2.5 40.9.1 40.9.1 11.6-17.6c6.3-9.7 11.9-17.8 12.3-18.1.4-.3 1-1.5 1.4-2.8.4-1.2 1.2-2.2 1.7-2.2s.9-.5.9-1.1c0-.6 1.3-2.9 2.9-5.2 1.5-2.3 5.5-8.3 8.7-13.2 3.2-5 6.4-9.3 6.9-9.7.7-.5.7-.8 0-.8-.6 0-.6-.3 0-.8 1.2-.8 9.5-12.9 9.5-13.7 0-.3.5-1.1 1-1.8 2.1-2.4 24-36.1 24-36.9 0-.4-18.4-.8-41-.8s-41 .4-41 .8zM168.7 167.7c-.6.6.9 3.6 3.5 6.8.4.5 3.8 5.7 7.6 11.5 8.2 12.6 34.5 52.6 49.7 75.6 6.1 9.1 11.9 18.1 13 19.9 5 8.2 5.9 9.4 7.4 9.8 2.7.7 78.9.2 79.6-.5.4-.3-1.8-4.2-4.8-8.6-3-4.4-5.6-8.3-5.8-8.8-.2-.5-3.5-5.6-7.3-11.4-16.2-24.7-28.5-43.4-36.1-54.9-4.6-7-18.9-28.8-22-33.8l-4-6.3h-40.1c-22 0-40.4.3-40.7.7z"/></svg>